<svg height="24" viewBox="0 0 24 24" width="24" xmlns="http://www.w3.org/2000/svg"><g fill="#fff"><path d="m12 2.162c3.204 0 3.584.012 4.849.07 1.366.062 2.633.336 3.608 1.311s1.249 2.242 1.311 3.608c.058 1.265.07 1.645.07 4.849s-.012 3.584-.07 4.849c-.062 1.366-.336 2.633-1.311 3.608s-2.242 1.249-3.608 1.311c-1.265.058-1.645.07-4.849.07s-3.584-.012-4.849-.07c-1.366-.062-2.633-.336-3.608-1.311s-1.249-2.242-1.311-3.608c-.058-1.265-.07-1.645-.07-4.849s.012-3.584.07-4.849c.062-1.366.336-2.633 1.311-3.608s2.242-1.249 3.608-1.311c1.265-.058 1.645-.07 4.849-.07m0-2.162c-3.259 0-3.668.014-4.948.072-1.95.089-3.663.567-5.038 1.942s-1.853 3.088-1.942 5.038c-.058 1.28-.072 1.689-.072 4.948s.014 3.668.072 4.948c.089 1.95.567 3.663 1.942 5.038s3.088 1.853 5.038 1.942c1.28.058 1.689.072 4.948.072s3.668-.014 4.948-.072c1.95-.089 3.663-.567 5.038-1.942s1.853-3.088 1.942-5.038c.058-1.28.072-1.689.072-4.948s-.014-3.668-.072-4.948c-.089-1.95-.567-3.663-1.942-5.038s-3.088-1.853-5.038-1.942c-1.28-.058-1.689-.072-4.948-.072z"/><path d="m12 5.838c-3.403 0-6.162 2.759-6.162 6.162s2.759 6.162 6.162 6.162 6.162-2.759 6.162-6.162-2.759-6.162-6.162-6.162zm0 10.162c-2.209 0-4-1.791-4-4s1.791-4 4-4 4 1.791 4 4-1.791 4-4 4z"/><circle cx="18.406" cy="5.594" r="1.44"/></g></svg>