<svg viewBox="0 0 309.16 37.98" xmlns="http://www.w3.org/2000/svg" xmlns:xlink="http://www.w3.org/1999/xlink"><linearGradient id="a" gradientUnits="userSpaceOnUse" x2="18.99" y1="18.99" y2="18.99"><stop offset="0" stop-color="#5f32cf"/><stop offset="1" stop-color="#f02aaa"/></linearGradient><linearGradient id="b" x1="265.48" x2="299.41" xlink:href="#a" y1="27.47" y2="6.27"/><linearGradient id="c" x1="269.42" x2="303.35" xlink:href="#a" y1="33.78" y2="12.57"/><path d="m19 14.52-11.83 4.48 11.83 4.46v6.54l-19-8.27v-5.48l19-8.25z" fill="url(#a)"/><g fill="#fff"><path d="m46.1 14.35a10.16 10.16 0 0 1 -10.34 10.13h-4.43v9.28h-6.75v-29.54h11.18a10.15 10.15 0 0 1 10.34 10.13zm-6.75 0a3.61 3.61 0 0 0 -3.59-3.8h-4.43v7.6h4.43a3.61 3.61 0 0 0 3.59-3.8z"/><path d="m48.64 7a3.8 3.8 0 0 1 7.6 0 3.8 3.8 0 0 1 -7.6 0zm.64 5.65h6.33v21.1h-6.33z"/><path d="m73 33.76-3.92-5.57-3.93 5.57h-7.21l7.55-10.76-7.3-10.38h7.26l3.67 5.23 3.67-5.23h7.26l-7.3 10.38 7.55 10.76z"/><path d="m91.88 28.69a5.51 5.51 0 0 0 4.05-1.6l5.07 2.91c-2.07 2.87-5.19 4.35-9.2 4.35-7.21 0-11.69-4.85-11.69-11.14a10.82 10.82 0 0 1 11.22-11.14c6.16 0 10.72 4.77 10.72 11.14a12.12 12.12 0 0 1 -.26 2.53h-15c.82 2.2 2.76 2.95 5.09 2.95zm3.88-7.69a4.75 4.75 0 0 0 -9.07 0z"/><path d="m105.65 3h6.35v30.8h-6.33z"/><path d="m132.79 27.43c0 4.85-4.22 6.92-8.78 6.92-4.22 0-7.43-1.6-9.07-5l5.48-3.12a3.46 3.46 0 0 0 3.58 2.46c1.52 0 2.28-.46 2.28-1.3 0-2.32-10.38-1.1-10.38-8.4 0-4.6 3.88-6.92 8.27-6.92a9.24 9.24 0 0 1 8.23 4.52l-5.4 2.91a3.05 3.05 0 0 0 -2.82-1.86c-1.1 0-1.77.42-1.77 1.18 0 2.4 10.38.8 10.38 8.61z"/><path d="m165.92 33.76h-6.75v-17.17l-7.64 12.53h-.76l-7.63-12.53v17.17h-6.76v-29.54h6.76l8 13.13 8-13.13h6.75z"/><path d="m192.44 12.66v21.1h-6.33v-2a7.93 7.93 0 0 1 -6.29 2.57c-5.52 0-10.08-4.85-10.08-11.14s4.56-11.14 10.08-11.14a7.93 7.93 0 0 1 6.29 2.57v-2zm-6.33 10.55a5 5 0 1 0 -10 0 5 5 0 1 0 10 0z"/><path d="m205.12 18.74v7.47c0 1.81 1.56 2 4.34 1.81v5.74c-8.27.84-10.67-1.65-10.67-7.55v-7.47h-3.38v-6.08h3.38v-4l6.33-1.9v5.91h4.34v6.08z"/><path d="m220.44 18.74v7.47c0 1.81 1.56 2 4.35 1.81v5.74c-8.27.84-10.68-1.65-10.68-7.55v-7.47h-3.37v-6.08h3.37v-4l6.33-1.9v5.91h4.35v6.08z"/><path d="m238.68 28.69a5.49 5.49 0 0 0 4-1.6l5.11 2.91c-2.06 2.87-5.19 4.35-9.19 4.35-7.22 0-11.69-4.85-11.69-11.14a10.81 10.81 0 0 1 11.22-11.14c6.16 0 10.72 4.77 10.72 11.14a12.13 12.13 0 0 1 -.25 2.53h-15c.82 2.2 2.76 2.95 5.08 2.95zm3.88-7.69a4.75 4.75 0 0 0 -9.07 0z"/><path d="m265.11 12.24v7.17c-2.62-.42-6.33.64-6.33 4.81v9.54h-6.33v-21.1h6.33v3.75c.85-2.82 3.67-4.17 6.33-4.17z"/></g><path d="m267.38 38 16.88-38h6.46l-16.88 38z" fill="url(#b)"/><path d="m309.16 16.25v5.48l-19 8.23v-6.5l11.84-4.46-11.81-4.47v-6.53z" fill="url(#c)"/></svg>